<?xml version="1.0" standalone="no"?><!DOCTYPE svg PUBLIC "-//W3C//DTD SVG 1.1//EN" "http://www.w3.org/Graphics/SVG/1.1/DTD/svg11.dtd"><svg t="1551353267309" class="icon" style="" viewBox="0 0 1024 1024" version="1.1" xmlns="http://www.w3.org/2000/svg" p-id="2161" xmlns:xlink="http://www.w3.org/1999/xlink" width="28" height="28"><defs><style type="text/css"></style></defs><path d="M898.701784 64.644299 754.555803 64.644299c-12.759605 1.291412-18.140149 15.861246-18.140149 15.861246l-45.597501 74.743308c0 0-3.367701 4.63967-5.056156 5.586229-1.449002 0.813528-5.628184 1.023306-5.628184 1.023306L342.698594 161.858388c0 0-3.176342-0.36532-4.348028-1.023306-0.860601-0.483001-3.077082-2.343371-3.077082-2.343371l-47.576575-77.986165c0 0-5.380544-14.569834-18.139126-15.861246L125.821125 64.644299c-22.605857 0-40.932248 18.326391-40.932248 40.932248l0 812.960493c0 22.606881 18.326391 40.932248 40.932248 40.932248L898.701784 959.469288c22.606881 0 40.932248-18.325367 40.932248-40.932248L939.634032 105.576547C939.634032 82.97069 921.308665 64.644299 898.701784 64.644299zM905.864928 918.53704c0 3.948939-3.214205 7.163143-7.163143 7.163143L125.821125 925.700183c-3.949962 0-7.163143-3.214205-7.163143-7.163143L118.657982 105.576547c0-3.949962 3.213181-7.163143 7.163143-7.163143l133.243677 0 47.381124 77.664847 2.879584 4.720511 4.235464 3.555989c4.644787 3.89982 7.184633 5.324262 8.258081 5.925966 1.75497 0.985444 7.093559 3.982708 17.017582 5.124717l1.924839 0.222057 1.938142 0 337.435219 0 0.845251 0 0.844228-0.042979c12.106736-0.606821 18.406209-4.145413 20.458961-5.298679 3.793396-2.127454 9.023514-5.777587 15.864316-15.20019l0.794086-1.095961 0.705058-1.155313 45.400003-74.420967 133.654023 0c3.948939 0 7.163143 3.213181 7.163143 7.163143L905.863904 918.53704z" p-id="2162" fill="#e6e6e6"></path><path d="M383.081327 97.79021l258.275321 0c6.791683 0 12.299117-5.498224 12.299117-12.279674l0-9.209756c0-6.78145-5.507434-12.279674-12.299117-12.279674L383.081327 64.021106c-6.792707 0-12.299117 5.498224-12.299117 12.279674l0 9.209756C370.78221 92.293009 376.28862 97.79021 383.081327 97.79021z" p-id="2163" fill="#e6e6e6"></path><path d="M743.687268 381.246027 280.750707 381.246027c-6.792707 0-12.299117 5.498224-12.299117 12.279674l0 9.209756c0 6.78145 5.506411 12.279674 12.299117 12.279674l462.936561 0c6.791683 0 12.299117-5.498224 12.299117-12.279674l0-9.209756C755.986385 386.744251 750.478951 381.246027 743.687268 381.246027z" p-id="2164" fill="#e6e6e6"></path><path d="M743.687268 550.09155 280.750707 550.09155c-6.792707 0-12.299117 5.498224-12.299117 12.279674l0 9.209756c0 6.782473 5.506411 12.279674 12.299117 12.279674l462.936561 0c6.791683 0 12.299117-5.497201 12.299117-12.279674l0-9.209756C755.986385 555.589774 750.478951 550.09155 743.687268 550.09155z" p-id="2165" fill="#e6e6e6"></path><path d="M743.687268 718.937073 280.750707 718.937073c-6.792707 0-12.299117 5.498224-12.299117 12.279674l0 9.209756c0 6.782473 5.506411 12.279674 12.299117 12.279674l462.936561 0c6.791683 0 12.299117-5.497201 12.299117-12.279674l0-9.209756C755.986385 724.435297 750.478951 718.937073 743.687268 718.937073z" p-id="2166" fill="#e6e6e6"></path></svg>