<?xml version="1.0" standalone="no"?><!DOCTYPE svg PUBLIC "-//W3C//DTD SVG 1.1//EN" "http://www.w3.org/Graphics/SVG/1.1/DTD/svg11.dtd"><svg t="1551353444241" class="icon" style="" viewBox="0 0 1024 1024" version="1.1" xmlns="http://www.w3.org/2000/svg" p-id="4444" xmlns:xlink="http://www.w3.org/1999/xlink" width="28" height="28"><defs><style type="text/css"></style></defs><path d="M799.918542 0H224.081458C146.8111 0 84.174106 61.64337 84.174106 137.623308V289.054112h84.574136V159.80563c0-43.280692 35.654309-78.380119 79.67054-78.380119h527.072107c44.003327 0 79.657635 35.099428 79.657635 78.380119V289.054112h84.67737V137.623308C939.825894 61.64337 877.1889 0 799.918542 0zM855.148524 734.945888V864.19437c0 43.280692-35.654309 78.380119-79.657635 78.380119H248.470398c-44.016231 0-79.67054-35.099428-79.670539-78.380119V289.054112H84.174106v597.32258c0 76.018651 62.662802 137.623308 139.907352 137.623308h575.837084c77.24455 0 139.907352-61.604658 139.907352-137.623308V289.054112h-84.67737z" p-id="4445" fill="#e6e6e6"></path><path d="M616.201427 245.37339l-43.061321 90.600398q-43.409734 89.219649-49.526325 107.46619-3.87126 11.381506-6.54243 18.943368h-2.490511q-21.00804-52.326537-100.575346-217.009956h-117.131436l134.694055 236.946947h-100.936664v71.334425h125.364317v54.068604h-125.364317v72.031253h125.364317v98.859087h109.569574v-98.859087h121.299494v-72.005444h-121.299494v-54.068604h121.299494v-71.360234h-98.200973l138.462081-236.946947z" p-id="4446" fill="#e6e6e6"></path></svg>