<?xml version="1.0" standalone="no"?><!DOCTYPE svg PUBLIC "-//W3C//DTD SVG 1.1//EN" "http://www.w3.org/Graphics/SVG/1.1/DTD/svg11.dtd"><svg t="1551353427640" class="icon" style="" viewBox="0 0 1024 1024" version="1.1" xmlns="http://www.w3.org/2000/svg" p-id="3608" xmlns:xlink="http://www.w3.org/1999/xlink" width="28" height="28"><defs><style type="text/css"></style></defs><path d="M500 658.7c-3.9 0-7.7-1-11.2-3L76.5 415.6c-6.9-4-11.1-11.5-11-19.5 0.1-8 4.5-15.3 11.5-19.2l436.4-240.1c6.8-3.8 15.1-3.7 21.9 0.3l412.4 240c6.9 4 11.1 11.5 11 19.5-0.1 8-4.5 15.3-11.5 19.2L510.7 655.9c-3.3 1.9-7 2.8-10.7 2.8zM132.8 397l367.6 214 390.9-215.1-367.6-214L132.8 397z" fill="#e6e6e6" p-id="3609"></path><path d="M869.038 424.736l44.5-0.424 2.404 252.3-44.5 0.424zM515.3 889.9C350.8 889.9 217 756.1 217 591.6V487.5h44.5v104.1c0 140 113.9 253.8 253.8 253.8s253.8-113.9 253.8-253.8V470.5h44.5v121.1c0 164.5-133.8 298.3-298.3 298.3z" fill="#e6e6e6" p-id="3610"></path></svg>